<svg xmlns="http://www.w3.org/2000/svg" xmlns:xlink="http://www.w3.org/1999/xlink" width="29" height="30" viewBox="0 0 29 30">
  <defs>
    <polygon id="logo00-a" points="0 .334 0 29.149 27.909 29.149 27.909 .334"/>
    <path id="logo00-c" d="M10.9770098,23.7744468 C13.8017928,23.7744435 14.9184438,22.8944995 14.9184438,22.8944995 C14.9184438,22.8944995 6.30424996,24.8268521 5.63292672,15.5256393 C5.63292672,15.5256393 4.73648372,11.4178765 8.70791903,6.94193978 C10.8568709,4.52033288 8.39804304,0.104039408 4.74276196,0.104039408 C4.23915741,0.104039408 3.71313058,0.187898758 3.17320193,0.372209949 C3.17320193,0.372209949 1.09241378,1.33950737 0.169960929,4.17502967 C0.169960929,4.17502967 1.07806352,2.02652622 3.49339218,2.20635295 C3.49339218,2.20635295 7.74779674,2.94135549 4.46517405,7.83210454 C1.18255137,12.723302 2.07899437,16.6001153 2.07899437,16.6001153 C2.07899437,16.6001153 2.67453029,22.5312584 7.83838278,23.4680615 C9.06063965,23.6898172 10.1009678,23.7744479 10.9770098,23.7744468 L10.9770098,23.7744468 L10.9770098,23.7744468 Z"/>
  </defs>
  <g fill="none" fill-rule="evenodd" transform="translate(.588 .325)">
    <g transform="translate(0 .114)">
      <mask id="logo00-b" fill="#fff">
        <use xlink:href="#logo00-a"/>
      </mask>
      <path fill="#FEFEFE" d="M3.54657784,15.361284 C2.82502867,17.0393679 2.39093321,18.860506 2.45730318,20.68568 C2.5232247,22.5113026 3.1106886,24.3405127 4.25870964,25.7611887 C5.56951649,27.3827685 7.5547857,28.3926682 9.61629069,28.7061318 C11.6535796,29.0160078 13.785939,28.6693592 15.6205305,27.7307623 C16.1618044,28.1020754 16.747923,28.4070185 17.3627421,28.6370711 C18.5161445,29.0684759 19.7691018,29.2317102 20.9942555,29.1097329 L27.1523122,28.7366261 C27.1455855,28.5361709 27.0760764,28.3384063 26.9549961,28.1787596 C26.7899681,27.960815 26.53839,27.8204515 26.2756008,27.7469064 C26.0123632,27.6733613 25.7361206,27.6608048 25.4630172,27.6599079 C25.1127811,27.659011 24.7620965,27.6756035 24.4132057,27.7101338 C25.3343132,27.2477863 26.1204386,26.5213042 26.6531921,25.6396599 C26.8931106,25.2427855 27.0837,24.8118291 27.174286,24.3571052 C27.2648721,23.9023812 27.252764,23.4220958 27.0993956,22.9844128 C26.8958013,22.4050209 26.439732,21.9189058 25.8737934,21.6789873 C25.6796165,21.1807641 25.4020286,20.7152775 25.0558285,20.3076403 C24.7360867,19.9313943 24.3580469,19.6044774 23.9391986,19.3425851 C24.1898798,19.0649972 24.4531174,18.7986204 24.7271177,18.5439033 C24.9163618,18.3676641 25.1114357,18.1972547 25.3109941,18.0326752 C25.4087552,18.2326819 25.5921695,18.3891895 25.8051813,18.4542141 C25.99308,18.5116152 26.1998135,18.4986103 26.3827793,18.4282043 C26.5661936,18.3577983 26.7262888,18.2317851 26.8469207,18.0770713 C27.0881845,17.7671953 27.1666625,17.3550737 27.1411011,16.9631321 C27.1173334,16.5976488 27.001186,16.2236451 26.7415359,15.9653404 C26.530318,15.7550193 26.2312047,15.6361812 25.9329883,15.6438048 C25.9531683,14.9975945 25.8293973,14.3473482 25.5728864,13.7540545 C25.3271381,13.1854253 24.9603095,12.6697128 24.5042402,12.2508645 C24.74954,12.2109528 24.9921492,12.151758 25.2284801,12.0737284 C25.4661563,11.9956988 25.6975543,11.8983861 25.9199834,11.7840325 L26.7993854,11.6364938 C27.026299,11.5293153 27.232584,11.3772922 27.4020965,11.1920841 C27.7083849,10.8570952 27.8913508,10.412237 27.9092886,9.95885837 C27.7532295,9.76423293 27.5850623,9.57992174 27.405684,9.40637324 C27.2536609,9.25973149 27.0935658,9.12116176 26.9262956,8.99156095 C26.9047702,8.58706291 26.8114935,8.18704933 26.6522952,7.81483938 C26.4747107,7.39868175 26.2137153,7.01839977 25.8903859,6.70224554 C26.1280622,6.49865118 26.3128218,6.23451665 26.4231395,5.94168159 C26.534354,5.64705276 26.5693328,5.33000163 26.5917551,5.01608962 C26.6074507,4.79186676 26.6173165,4.5676439 26.620904,4.3429726 C26.3007138,4.41337857 25.9876987,4.51472731 25.6876885,4.64522501 C25.3993379,4.77123826 25.1204046,4.92550359 24.8831768,5.13178862 C24.6558149,5.32955318 24.468813,5.57440455 24.3378669,5.84571421 L23.8136338,5.65377944 L23.2943337,5.56812631 C23.2311028,5.09411918 23.1158523,4.62683874 22.9517211,4.17749612 C22.8261563,3.8339867 22.6714425,3.50079153 22.4907189,3.18284351 C22.1256841,3.46760655 21.8059423,3.80887374 21.5453953,4.19139794 C21.3983051,4.40754878 21.2700497,4.63804988 21.1884325,4.88604037 C21.0897745,5.18605055 21.0624193,5.50937992 21.1095061,5.82194659 C20.5736135,6.05334458 20.1005032,6.42869365 19.7543031,6.89866477 C19.3246921,7.48119576 19.0932941,8.20722938 19.1076444,8.93102078 C19.1219947,9.65481217 19.3811963,10.3714284 19.8332296,10.93647 C19.6287383,10.9355732 19.4242471,10.9508203 19.2219981,10.9817631 C18.5390152,11.0875963 17.8887689,11.3781891 17.3403198,11.7988312 C16.7918707,12.2190248 16.3447703,12.7670255 16.0218894,13.378257 C15.7622393,13.8706504 15.5815157,14.4047493 15.4891359,14.9536468 C16.0357912,11.903319 15.566717,8.67944273 14.1733961,5.91163573 C13.4460172,4.46764051 12.463921,3.13620516 11.2015463,2.12630539 C9.93962005,1.11640563 8.38710096,0.439701031 6.77314481,0.345527429 C5.35022653,0.262116525 3.89905618,0.64105316 2.71560791,1.43569898 C1.53215965,2.23079324 0.627644633,3.4406998 0.230321723,4.80980459 C-0.179557667,6.22375395 -0.0382972647,7.79017486 0.618227272,9.10770839 C0.87115066,8.46194655 1.34470934,7.90497697 1.9415906,7.55160174 C2.53802341,7.19822651 3.25419123,7.05068787 3.94210696,7.13948012 C4.38561978,7.19643273 4.81881835,7.3511465 5.18744073,7.60541522 C5.55561467,7.8592355 5.85741864,8.21350762 6.03051869,8.62607769 C6.17446977,8.96913866 6.22828326,9.34672996 6.21124232,9.71893991 C6.19375294,10.0907014 6.10630602,10.4570816 5.9776021,10.8064208 C5.7206427,11.5050992 5.30269129,12.130681 4.9134404,12.7652317 C4.40176383,13.5997892 3.93313805,14.4621503 3.54657784,15.361284" mask="url(#logo00-b)"/>
      <g fill="#FEFEFE">
        <path d="M21.1883877,4.88599552 C21.0897296,5.18600571 21.0628229,5.50933507 21.1094613,5.82190174 C20.5735686,6.05329974 20.1004584,6.4286488 19.7542583,6.89861992 C19.3246473,7.48115091 19.0936977,8.20718454 19.1075996,8.93097593 C19.1219498,9.65476733 19.3811514,10.3713836 19.8331847,10.9364252 C19.6286935,10.9355283 19.4242022,10.9507755 19.2224017,10.9817182 C18.5394188,11.0875514 17.8887241,11.3781442 17.340275,11.7987863 C16.7918258,12.21898 16.3447255,12.7669806 16.0218445,13.3782122 C15.7621945,13.8706056 15.5814708,14.4047044 15.489091,14.953602 C16.0361948,11.9032742 15.5671206,8.67939788 14.1733513,5.91159089 C13.4464208,4.46759566 12.4638762,3.13616031 11.2019499,2.12626055 C9.93957521,1.11636078 8.38705612,0.439656186 6.77354841,0.345482584 C5.35018169,0.26207168 3.89901133,0.641008315 2.71556307,1.43565413 C1.53211481,2.2307484 0.627599788,3.44065496 0.230725324,4.80975975 C-0.179602512,6.22370911 -0.0378936635,7.79013002 0.618630874,9.10766355 C0.871105815,8.46190171 1.3446645,7.90493212 1.94154575,7.55155689 C2.53797856,7.19818166 3.25414638,7.05064302 3.94206212,7.13943527 C4.38557494,7.19683633 4.81877351,7.35110165 5.18739589,7.60537038 C5.55556983,7.85919066 5.8573738,8.21346278 6.03047385,8.62603284 C6.17442492,8.96909382 6.22868686,9.34668512 6.21119747,9.71889507 C6.19370809,10.0906566 6.10626117,10.4570367 5.97755725,10.8063759 C5.72059785,11.5050544 5.30264644,12.1306362 4.91339555,12.7651869 C4.40216743,13.5997443 3.93354165,14.4621055 3.54653299,15.3612391 C2.82498383,17.039323 2.39133681,18.8604611 2.45725833,20.6856352 C2.5236283,22.5112577 3.11064375,24.3404678 4.2586648,25.7611439 C5.56947165,27.3827236 7.55474086,28.3926234 9.61624584,28.7060869 C11.6539832,29.0159629 13.7858942,28.6693144 15.6204856,27.7307175 C16.1617596,28.1020306 16.7478782,28.4069736 17.3626972,28.6370263 C18.5160996,29.0684311 19.769057,29.2316653 20.9942107,29.1096881 L27.1522674,28.7365813 C27.1459891,28.536126 27.0760316,28.3383614 26.9549512,28.1787148 C26.7903717,27.9607702 26.5387936,27.8204066 26.275556,27.7468615 C26.0123183,27.6733164 25.7360758,27.66076 25.4629723,27.6598631 C25.1127362,27.6589662 24.7620517,27.6755587 24.4136093,27.710089 C25.3342684,27.2477415 26.1203938,26.5212594 26.6531473,25.6396151 C26.8930657,25.2427406 27.0836552,24.8117843 27.1742412,24.3570603 C27.2648272,23.9023364 27.2527192,23.422051 27.0993508,22.984368 C26.8957564,22.4049761 26.4396871,21.9188609 25.8737486,21.6789425 C25.6800201,21.1807193 25.4019837,20.7152326 25.0557836,20.3075955 C24.7360418,19.9313495 24.3580021,19.6044326 23.9391538,19.3425403 C24.1898349,19.0649524 24.4530726,18.7985756 24.7270729,18.5438584 C24.9167654,18.3676193 25.1113909,18.1972099 25.3109492,18.0326303 C25.4091588,18.2326371 25.5921247,18.3891447 25.8051364,18.4541693 C25.9930352,18.5115703 26.1997686,18.4985654 26.3831829,18.4281594 C26.5661488,18.3577535 26.7262439,18.2317402 26.8468758,18.0770264 C27.0881396,17.7671504 27.1666176,17.3550288 27.1410562,16.9630873 C27.1172886,16.597604 27.0011412,16.2236003 26.7414911,15.9652955 C26.5302731,15.7549745 26.2311598,15.6361364 25.9333919,15.6437599 C25.9531235,14.9975497 25.8293525,14.3473034 25.5728415,13.7540097 C25.3270933,13.1853805 24.9607131,12.6696679 24.5041954,12.2508196 C24.7494952,12.2109079 24.9921043,12.1517131 25.2284352,12.0736836 C25.4661114,11.995654 25.6975094,11.8983413 25.9199385,11.7839876 L26.7993406,11.636449 C27.0267026,11.5292704 27.2325391,11.3772473 27.4025001,11.1920393 C27.7083401,10.8570503 27.8913059,10.4121922 27.9092437,9.95881353 C27.7536331,9.76418809 27.5850175,9.57987689 27.4056392,9.40677685 C27.2536161,9.25968665 27.093521,9.12111692 26.9262507,8.99151611 C26.9047253,8.58746651 26.8118971,8.18700448 26.6522504,7.81479453 C26.4746659,7.3986369 26.2141189,7.01835493 25.8903411,6.7022007 C26.1280173,6.49860634 26.312777,6.23447181 26.4235431,5.94163675 C26.5343092,5.64700791 26.5692879,5.32995679 26.5917102,5.01604478 C26.6074058,4.79182192 26.6172716,4.56759906 26.6208592,4.34292775 C26.3011174,4.41333373 25.9881023,4.51468246 25.6876436,4.64518017 C25.399293,4.77119342 25.1203598,4.92545874 24.883132,5.13174378 C24.65577,5.32950834 24.4687682,5.5743597 24.337822,5.84566937 L23.813589,5.6537346 L23.2942888,5.56808146 C23.2400269,5.16089275 23.1471986,4.75818849 23.0180462,4.36804071"/>
      </g>
    </g>
    <g transform="translate(.448 5.047)">
      <mask id="logo00-d" fill="#fff">
        <use xlink:href="#logo00-c"/>
      </mask>
      <path d="M3.17320193,0.372209949 C3.17320193,0.372209949 1.09241378,1.33950737 0.169960929,4.17502967 L0.169960929,4.17502967 C0.169960929,4.17502967 1.07806352,2.02652622 3.49339218,2.20635295 L3.49339218,2.20635295 C3.49339218,2.20635295 7.74779674,2.94135549 4.46517405,7.83210454 L4.46517405,7.83210454 C1.18255137,12.723302 2.07899437,16.6001153 2.07899437,16.6001153 L2.07899437,16.6001153 C2.07899437,16.6001153 2.67453029,22.5312584 7.83838278,23.4680615 L7.83838278,23.4680615 C13.0017868,24.4048646 14.9184438,22.8944995 14.9184438,22.8944995 L14.9184438,22.8944995 C14.9184438,22.8944995 6.30424996,24.8268521 5.63292672,15.5256393 L5.63292672,15.5256393 C5.63292672,15.5256393 4.73648372,11.4178765 8.70791903,6.94193978 L8.70791903,6.94193978 C10.8568709,4.52033288 8.39804304,0.104039408 4.74276196,0.104039408 L4.74276196,0.104039408 C4.23915741,0.104039408 3.71313058,0.187898758 3.17320193,0.372209949" mask="url(#logo00-d)"/>
    </g>
    <path d="M21.1096855 5.93647962C21.1096855 5.93647962 21.7231592 5.43466886 22.1106163 5.57009947L22.1106163 5.57009947C22.1106163 5.57009947 21.6392999 4.20861826 22.4904499 3.29737655L22.4904499 3.29737655C22.4904499 3.29737655 20.8926377 4.20682447 21.1096855 5.93647962M24.3380462 5.96024725L24.8882891 6.24725251C24.8882891 6.24725251 25.8058091 4.57544686 26.620635 4.45750563L26.620635 4.45750563C26.620635 4.45750563 25.0757394 4.6229821 24.3380462 5.96024725"/>
  </g>
</svg>
