<svg xmlns="http://www.w3.org/2000/svg" xmlns:xlink="http://www.w3.org/1999/xlink" width="78" height="30" viewBox="0 0 78 30">
  <defs>
    <polygon id="logo-text-a" points="0 .334 0 29.149 27.909 29.149 27.909 .334"/>
    <path id="logo-text-c" d="M10.9770098,23.7744468 C13.8017928,23.7744435 14.9184438,22.8944995 14.9184438,22.8944995 C14.9184438,22.8944995 6.30424996,24.8268521 5.63292672,15.5256393 C5.63292672,15.5256393 4.73648372,11.4178765 8.70791903,6.94193978 C10.8568709,4.52033288 8.39804304,0.104039408 4.74276196,0.104039408 C4.23915741,0.104039408 3.71313058,0.187898758 3.17320193,0.372209949 C3.17320193,0.372209949 1.09241378,1.33950737 0.169960929,4.17502967 C0.169960929,4.17502967 1.07806352,2.02652622 3.49339218,2.20635295 C3.49339218,2.20635295 7.74779674,2.94135549 4.46517405,7.83210454 C1.18255137,12.723302 2.07899437,16.6001153 2.07899437,16.6001153 C2.07899437,16.6001153 2.67453029,22.5312584 7.83838278,23.4680615 C9.06063965,23.6898172 10.1009678,23.7744479 10.9770098,23.7744468 L10.9770098,23.7744468 L10.9770098,23.7744468 Z"/>
  </defs>
  <g fill="none" fill-rule="evenodd">
    <g transform="translate(0 .114)">
      <mask id="logo-text-b" fill="#fff">
        <use xlink:href="#logo-text-a"/>
      </mask>
      <path fill="#FEFEFE" d="M3.54657784,15.361284 C2.82502867,17.0393679 2.39093321,18.860506 2.45730318,20.68568 C2.5232247,22.5113026 3.1106886,24.3405127 4.25870964,25.7611887 C5.56951649,27.3827685 7.5547857,28.3926682 9.61629069,28.7061318 C11.6535796,29.0160078 13.785939,28.6693592 15.6205305,27.7307623 C16.1618044,28.1020754 16.747923,28.4070185 17.3627421,28.6370711 C18.5161445,29.0684759 19.7691018,29.2317102 20.9942555,29.1097329 L27.1523122,28.7366261 C27.1455855,28.5361709 27.0760764,28.3384063 26.9549961,28.1787596 C26.7899681,27.960815 26.53839,27.8204515 26.2756008,27.7469064 C26.0123632,27.6733613 25.7361206,27.6608048 25.4630172,27.6599079 C25.1127811,27.659011 24.7620965,27.6756035 24.4132057,27.7101338 C25.3343132,27.2477863 26.1204386,26.5213042 26.6531921,25.6396599 C26.8931106,25.2427855 27.0837,24.8118291 27.174286,24.3571052 C27.2648721,23.9023812 27.252764,23.4220958 27.0993956,22.9844128 C26.8958013,22.4050209 26.439732,21.9189058 25.8737934,21.6789873 C25.6796165,21.1807641 25.4020286,20.7152775 25.0558285,20.3076403 C24.7360867,19.9313943 24.3580469,19.6044774 23.9391986,19.3425851 C24.1898798,19.0649972 24.4531174,18.7986204 24.7271177,18.5439033 C24.9163618,18.3676641 25.1114357,18.1972547 25.3109941,18.0326752 C25.4087552,18.2326819 25.5921695,18.3891895 25.8051813,18.4542141 C25.99308,18.5116152 26.1998135,18.4986103 26.3827793,18.4282043 C26.5661936,18.3577983 26.7262888,18.2317851 26.8469207,18.0770713 C27.0881845,17.7671953 27.1666625,17.3550737 27.1411011,16.9631321 C27.1173334,16.5976488 27.001186,16.2236451 26.7415359,15.9653404 C26.530318,15.7550193 26.2312047,15.6361812 25.9329883,15.6438048 C25.9531683,14.9975945 25.8293973,14.3473482 25.5728864,13.7540545 C25.3271381,13.1854253 24.9603095,12.6697128 24.5042402,12.2508645 C24.74954,12.2109528 24.9921492,12.151758 25.2284801,12.0737284 C25.4661563,11.9956988 25.6975543,11.8983861 25.9199834,11.7840325 L26.7993854,11.6364938 C27.026299,11.5293153 27.232584,11.3772922 27.4020965,11.1920841 C27.7083849,10.8570952 27.8913508,10.412237 27.9092886,9.95885837 C27.7532295,9.76423293 27.5850623,9.57992174 27.405684,9.40637324 C27.2536609,9.25973149 27.0935658,9.12116176 26.9262956,8.99156095 C26.9047702,8.58706291 26.8114935,8.18704933 26.6522952,7.81483938 C26.4747107,7.39868175 26.2137153,7.01839977 25.8903859,6.70224554 C26.1280622,6.49865118 26.3128218,6.23451665 26.4231395,5.94168159 C26.534354,5.64705276 26.5693328,5.33000163 26.5917551,5.01608962 C26.6074507,4.79186676 26.6173165,4.5676439 26.620904,4.3429726 C26.3007138,4.41337857 25.9876987,4.51472731 25.6876885,4.64522501 C25.3993379,4.77123826 25.1204046,4.92550359 24.8831768,5.13178862 C24.6558149,5.32955318 24.468813,5.57440455 24.3378669,5.84571421 L23.8136338,5.65377944 L23.2943337,5.56812631 C23.2311028,5.09411918 23.1158523,4.62683874 22.9517211,4.17749612 C22.8261563,3.8339867 22.6714425,3.50079153 22.4907189,3.18284351 C22.1256841,3.46760655 21.8059423,3.80887374 21.5453953,4.19139794 C21.3983051,4.40754878 21.2700497,4.63804988 21.1884325,4.88604037 C21.0897745,5.18605055 21.0624193,5.50937992 21.1095061,5.82194659 C20.5736135,6.05334458 20.1005032,6.42869365 19.7543031,6.89866477 C19.3246921,7.48119576 19.0932941,8.20722938 19.1076444,8.93102078 C19.1219947,9.65481217 19.3811963,10.3714284 19.8332296,10.93647 C19.6287383,10.9355732 19.4242471,10.9508203 19.2219981,10.9817631 C18.5390152,11.0875963 17.8887689,11.3781891 17.3403198,11.7988312 C16.7918707,12.2190248 16.3447703,12.7670255 16.0218894,13.378257 C15.7622393,13.8706504 15.5815157,14.4047493 15.4891359,14.9536468 C16.0357912,11.903319 15.566717,8.67944273 14.1733961,5.91163573 C13.4460172,4.46764051 12.463921,3.13620516 11.2015463,2.12630539 C9.93962005,1.11640563 8.38710096,0.439701031 6.77314481,0.345527429 C5.35022653,0.262116525 3.89905618,0.64105316 2.71560791,1.43569898 C1.53215965,2.23079324 0.627644633,3.4406998 0.230321723,4.80980459 C-0.179557667,6.22375395 -0.0382972647,7.79017486 0.618227272,9.10770839 C0.87115066,8.46194655 1.34470934,7.90497697 1.9415906,7.55160174 C2.53802341,7.19822651 3.25419123,7.05068787 3.94210696,7.13948012 C4.38561978,7.19643273 4.81881835,7.3511465 5.18744073,7.60541522 C5.55561467,7.8592355 5.85741864,8.21350762 6.03051869,8.62607769 C6.17446977,8.96913866 6.22828326,9.34672996 6.21124232,9.71893991 C6.19375294,10.0907014 6.10630602,10.4570816 5.9776021,10.8064208 C5.7206427,11.5050992 5.30269129,12.130681 4.9134404,12.7652317 C4.40176383,13.5997892 3.93313805,14.4621503 3.54657784,15.361284" mask="url(#logo-text-b)"/>
      <g fill="#FEFEFE">
        <path d="M21.1883877,4.88599552 C21.0897296,5.18600571 21.0628229,5.50933507 21.1094613,5.82190174 C20.5735686,6.05329974 20.1004584,6.4286488 19.7542583,6.89861992 C19.3246473,7.48115091 19.0936977,8.20718454 19.1075996,8.93097593 C19.1219498,9.65476733 19.3811514,10.3713836 19.8331847,10.9364252 C19.6286935,10.9355283 19.4242022,10.9507755 19.2224017,10.9817182 C18.5394188,11.0875514 17.8887241,11.3781442 17.340275,11.7987863 C16.7918258,12.21898 16.3447255,12.7669806 16.0218445,13.3782122 C15.7621945,13.8706056 15.5814708,14.4047044 15.489091,14.953602 C16.0361948,11.9032742 15.5671206,8.67939788 14.1733513,5.91159089 C13.4464208,4.46759566 12.4638762,3.13616031 11.2019499,2.12626055 C9.93957521,1.11636078 8.38705612,0.439656186 6.77354841,0.345482584 C5.35018169,0.26207168 3.89901133,0.641008315 2.71556307,1.43565413 C1.53211481,2.2307484 0.627599788,3.44065496 0.230725324,4.80975975 C-0.179602512,6.22370911 -0.0378936635,7.79013002 0.618630874,9.10766355 C0.871105815,8.46190171 1.3446645,7.90493212 1.94154575,7.55155689 C2.53797856,7.19818166 3.25414638,7.05064302 3.94206212,7.13943527 C4.38557494,7.19683633 4.81877351,7.35110165 5.18739589,7.60537038 C5.55556983,7.85919066 5.8573738,8.21346278 6.03047385,8.62603284 C6.17442492,8.96909382 6.22868686,9.34668512 6.21119747,9.71889507 C6.19370809,10.0906566 6.10626117,10.4570367 5.97755725,10.8063759 C5.72059785,11.5050544 5.30264644,12.1306362 4.91339555,12.7651869 C4.40216743,13.5997443 3.93354165,14.4621055 3.54653299,15.3612391 C2.82498383,17.039323 2.39133681,18.8604611 2.45725833,20.6856352 C2.5236283,22.5112577 3.11064375,24.3404678 4.2586648,25.7611439 C5.56947165,27.3827236 7.55474086,28.3926234 9.61624584,28.7060869 C11.6539832,29.0159629 13.7858942,28.6693144 15.6204856,27.7307175 C16.1617596,28.1020306 16.7478782,28.4069736 17.3626972,28.6370263 C18.5160996,29.0684311 19.769057,29.2316653 20.9942107,29.1096881 L27.1522674,28.7365813 C27.1459891,28.536126 27.0760316,28.3383614 26.9549512,28.1787148 C26.7903717,27.9607702 26.5387936,27.8204066 26.275556,27.7468615 C26.0123183,27.6733164 25.7360758,27.66076 25.4629723,27.6598631 C25.1127362,27.6589662 24.7620517,27.6755587 24.4136093,27.710089 C25.3342684,27.2477415 26.1203938,26.5212594 26.6531473,25.6396151 C26.8930657,25.2427406 27.0836552,24.8117843 27.1742412,24.3570603 C27.2648272,23.9023364 27.2527192,23.422051 27.0993508,22.984368 C26.8957564,22.4049761 26.4396871,21.9188609 25.8737486,21.6789425 C25.6800201,21.1807193 25.4019837,20.7152326 25.0557836,20.3075955 C24.7360418,19.9313495 24.3580021,19.6044326 23.9391538,19.3425403 C24.1898349,19.0649524 24.4530726,18.7985756 24.7270729,18.5438584 C24.9167654,18.3676193 25.1113909,18.1972099 25.3109492,18.0326303 C25.4091588,18.2326371 25.5921247,18.3891447 25.8051364,18.4541693 C25.9930352,18.5115703 26.1997686,18.4985654 26.3831829,18.4281594 C26.5661488,18.3577535 26.7262439,18.2317402 26.8468758,18.0770264 C27.0881396,17.7671504 27.1666176,17.3550288 27.1410562,16.9630873 C27.1172886,16.597604 27.0011412,16.2236003 26.7414911,15.9652955 C26.5302731,15.7549745 26.2311598,15.6361364 25.9333919,15.6437599 C25.9531235,14.9975497 25.8293525,14.3473034 25.5728415,13.7540097 C25.3270933,13.1853805 24.9607131,12.6696679 24.5041954,12.2508196 C24.7494952,12.2109079 24.9921043,12.1517131 25.2284352,12.0736836 C25.4661114,11.995654 25.6975094,11.8983413 25.9199385,11.7839876 L26.7993406,11.636449 C27.0267026,11.5292704 27.2325391,11.3772473 27.4025001,11.1920393 C27.7083401,10.8570503 27.8913059,10.4121922 27.9092437,9.95881353 C27.7536331,9.76418809 27.5850175,9.57987689 27.4056392,9.40677685 C27.2536161,9.25968665 27.093521,9.12111692 26.9262507,8.99151611 C26.9047253,8.58746651 26.8118971,8.18700448 26.6522504,7.81479453 C26.4746659,7.3986369 26.2141189,7.01835493 25.8903411,6.7022007 C26.1280173,6.49860634 26.312777,6.23447181 26.4235431,5.94163675 C26.5343092,5.64700791 26.5692879,5.32995679 26.5917102,5.01604478 C26.6074058,4.79182192 26.6172716,4.56759906 26.6208592,4.34292775 C26.3011174,4.41333373 25.9881023,4.51468246 25.6876436,4.64518017 C25.399293,4.77119342 25.1203598,4.92545874 24.883132,5.13174378 C24.65577,5.32950834 24.4687682,5.5743597 24.337822,5.84566937 L23.813589,5.6537346 L23.2942888,5.56808146 C23.2400269,5.16089275 23.1471986,4.75818849 23.0180462,4.36804071"/>
      </g>
    </g>
    <g transform="translate(.448 5.047)">
      <mask id="logo-text-d" fill="#fff">
        <use xlink:href="#logo-text-c"/>
      </mask>
      <path d="M3.17320193,0.372209949 C3.17320193,0.372209949 1.09241378,1.33950737 0.169960929,4.17502967 L0.169960929,4.17502967 C0.169960929,4.17502967 1.07806352,2.02652622 3.49339218,2.20635295 L3.49339218,2.20635295 C3.49339218,2.20635295 7.74779674,2.94135549 4.46517405,7.83210454 L4.46517405,7.83210454 C1.18255137,12.723302 2.07899437,16.6001153 2.07899437,16.6001153 L2.07899437,16.6001153 C2.07899437,16.6001153 2.67453029,22.5312584 7.83838278,23.4680615 L7.83838278,23.4680615 C13.0017868,24.4048646 14.9184438,22.8944995 14.9184438,22.8944995 L14.9184438,22.8944995 C14.9184438,22.8944995 6.30424996,24.8268521 5.63292672,15.5256393 L5.63292672,15.5256393 C5.63292672,15.5256393 4.73648372,11.4178765 8.70791903,6.94193978 L8.70791903,6.94193978 C10.8568709,4.52033288 8.39804304,0.104039408 4.74276196,0.104039408 L4.74276196,0.104039408 C4.23915741,0.104039408 3.71313058,0.187898758 3.17320193,0.372209949" mask="url(#logo-text-d)"/>
    </g>
    <path d="M21.1096855 5.93647962C21.1096855 5.93647962 21.7231592 5.43466886 22.1106163 5.57009947L22.1106163 5.57009947C22.1106163 5.57009947 21.6392999 4.20861826 22.4904499 3.29737655L22.4904499 3.29737655C22.4904499 3.29737655 20.8926377 4.20682447 21.1096855 5.93647962M24.3380462 5.96024725L24.8882891 6.24725251C24.8882891 6.24725251 25.8058091 4.57544686 26.620635 4.45750563L26.620635 4.45750563C26.620635 4.45750563 25.0757394 4.6229821 24.3380462 5.96024725"/>
    <g fill="#FEFEFE" transform="translate(36 3)">
      <path d="M2.69966076 8.43411543C2.4763769 8.84335394 2.1811998 9.16341717 1.81274688 9.3949964 1.44498524 9.62588434 1.00809548 9.82428207.500003745 9.99157213L.000207384382 8.67260747C.333404958 8.54402915.582957497 8.39609496.750247566 8.22949617.916846352 8.06289738 1.02883392 7.87002991 1.08551898 7.64951118 1.14289533 7.43037502 1.17054658 7.14971482 1.17054658 6.80891315L1.17054658.193351372 3.03493217.193351372 3.03493217 6.87665872C3.03493217 7.50641596 2.92294461 8.02487691 2.69966076 8.43411543M6.45103684 2.01764265C6.18904124 2.45384113 6.05908036 3.15618291 6.05908036 4.12605053 6.05908036 5.09591816 6.19111508 5.80102506 6.45587581 6.23998867 6.7220191 6.67964356 7.11950583 6.899471 7.64971857 6.899471 8.19513949 6.899471 8.59953904 6.6817174 8.86084336 6.24551892 9.12214768 5.81001171 9.25279984 5.10352225 9.25279984 4.12605053 9.25279984 3.14857881 9.12007383 2.4441632 8.85462183 2.01142112 8.5898611 1.58006161 8.18822668 1.36369057 7.64971857 1.36369057 7.11190174 1.36369057 6.71234116 1.58144417 6.45103684 2.01764265M10.2703659 1.07957396C10.8952841 1.79988905 11.2084346 2.81468996 11.2084346 4.12605053 11.2084346 4.98254803 11.0660306 5.72152771 10.781914 6.34298958 10.4977974 6.96376016 10.0885589 7.43936168 9.55419847 7.76910284 9.01983805 8.09884401 8.38455056 8.26336895 7.64971857 8.26336895 6.91488657 8.26336895 6.28236421 8.10091785 5.75146019 7.77463309 5.22124745 7.44903961 4.81408278 6.97758578 4.52996618 6.35958033 4.24584958 5.74226615 4.10344564 4.99775622 4.10344564 4.12605053 4.10344564 3.27784841 4.24584958 2.54232514 4.52996618 1.92086327 4.81408278 1.29940141 5.22124745.823799893 5.75146019.494058726 6.28236421.164317559 6.91488657-.000207384382 7.64971857-.000207384382 8.77166807-.000207384382 9.6454476.359950159 10.2703659 1.07957396M18.0114027 6.89960926C17.7805147 7.32405596 17.4334916 7.65725353 16.9717157 7.89989326 16.5092485 8.1418417 15.9444717 8.26350721 15.2773853 8.26350721 14.2771013 8.26350721 13.5153093 8.00980698 12.9933919 7.50171525 12.470092 6.99431479 12.2087877 6.31271146 12.2087877 5.45552268L12.2087877.192798347 14.072482.192798347 14.072482 5.37602533C14.072482 5.88411707 14.1692614 6.26155664 14.3628201 6.50765278 14.5563789 6.75374891 14.8612339 6.87679698 15.2773853 6.87679698 15.701832 6.87679698 16.0108347 6.75374891 16.2043934 6.50765278 16.3972609 6.26155664 16.4940403 5.88411707 16.4940403 5.37602533L16.4940403.192798347 18.3584259.192798347 18.3584259 5.45552268C18.3584259 5.99403079 18.2422906 6.47516256 18.0114027 6.89960926M22.3703459 3.7737736C22.7871885 3.7737736 23.1003389 3.67906806 23.3077233 3.48965699 23.5164902 3.30024593 23.6208737 3.00092113 23.6208737 2.59168262 23.6208737 2.21286048 23.5095774 1.93634797 23.2856023 1.76145381 23.0623184 1.58794221 22.7187517 1.50014949 22.2569758 1.50014949L21.5857416 1.50014949 21.5857416 3.7737736 22.3703459 3.7737736zM21.5857416 5.0581742L21.5857416 8.07008671 19.7213561 8.07008671 19.7213561.192936603 22.301909.192936603C23.378234.192936603 24.1870331.390643047 24.7289976.783982092 25.2702708 1.1787037 25.5419444 1.78080969 25.5419444 2.59168262 25.5419444 3.09908307 25.4209701 3.52007337 25.1783304 3.85327094 24.9356907 4.18646852 24.5527209 4.47473281 24.0301122 4.71737253L26.0306802 8.07008671 23.9278026 8.07008671 22.3136608 5.0581742 21.5857416 5.0581742zM30.4295104 8.07036322L28.1558862 1.96634958C28.2319272 2.56499916 28.2906861 3.09382934 28.332163 3.55214882 28.3743311 4.01046831 28.3950696 4.55381539 28.3950696 5.18288134L28.3950696 8.07036322 26.7353032 8.07036322 26.7353032.193213116 29.0545519.193213116 31.3848611 6.30828726C31.217571 5.27067407 31.1346173 4.29320235 31.1346173 3.3758721L31.1346173.193213116 32.8061354.193213116 32.8061354 8.07036322 30.4295104 8.07036322zM36.2559746 2.01764265C35.993979 2.45384113 35.8640181 3.15618291 35.8640181 4.12605053 35.8640181 5.09591816 35.9960528 5.80102506 36.2608135 6.23998867 36.5269568 6.67964356 36.9244436 6.899471 37.4546563 6.899471 38.0000772 6.899471 38.4044768 6.6817174 38.6657811 6.24551892 38.9270854 5.81001171 39.0577376 5.10352225 39.0577376 4.12605053 39.0577376 3.14857881 38.9250116 2.4441632 38.6595595 2.01142112 38.3947988 1.58006161 37.9931644 1.36369057 37.4546563 1.36369057 36.9168395 1.36369057 36.5172789 1.58144417 36.2559746 2.01764265M40.0753036 1.07957396C40.7002219 1.79988905 41.012681 2.81468996 41.012681 4.12605053 41.012681 4.98254803 40.8709683 5.72152771 40.5868517 6.34298958 40.3027351 6.96376016 39.8934966 7.43936168 39.3591362 7.76910284 38.8247758 8.09884401 38.1894883 8.26336895 37.4546563 8.26336895 36.7198243 8.26336895 36.0873019 8.10091785 35.5563979 7.77463309 35.0261852 7.44903961 34.6190205 6.97758578 34.3349039 6.35958033 34.0507873 5.74226615 33.9083834 4.99775622 33.9083834 4.12605053 33.9083834 3.27784841 34.0507873 2.54232514 34.3349039 1.92086327 34.6190205 1.29940141 35.0261852.823799893 35.5563979.494058726 36.0873019.164317559 36.7198243-.000207384382 37.4546563-.000207384382 38.5766058-.000207384382 39.449694.359950159 40.0753036 1.07957396M7.50047094 12.7889109C8.08667746 13.0101209 8.64177632 13.3405534 9.16438496 13.7822821L7.77007064 15.4372095C7.09676268 14.8565332 6.37783015 14.5661951 5.61050794 14.5661951 4.80862166 14.5661951 4.17402545 14.9118357 3.70326291 15.603117 3.23250036 16.293707 2.99746473 17.3479109 2.99746473 18.7643463 2.99746473 20.1704124 3.23250036 21.2128645 3.70326291 21.892394 4.17402545 22.5719235 4.82728626 22.9113426 5.66304532 22.9113426 6.09302227 22.9113426 6.48428747 22.8242412 6.83891476 22.6500383 7.19285077 22.4758354 7.58549854 22.2262829 8.01409293 21.9006894L9.30402378 23.5728988C8.86298633 24.0146275 8.31687412 24.3837717 7.66637845 24.6796401 7.01588277 24.9755085 6.30178921 25.1234427 5.5234065 25.1234427 4.40836981 25.1234427 3.43850218 24.8801117 2.61380362 24.3920671 1.78910506 23.9047138 1.14759604 23.1809423.689276557 22.2228265.229574511 21.2647106.0007604094 20.1123447.0007604094 18.7643463.0007604094 17.4522944.235796042 16.320667.706558589 15.3673901 1.17662985 14.4154958 1.820904 13.6924156 2.64007231 13.1981494 3.45924062 12.7052659 4.39177906 12.4584785 5.43630506 12.4584785 6.22574827 12.4584785 6.91426442 12.5690835 7.50047094 12.7889109M13.2681762 15.550787C12.8665418 16.2185647 12.6667615 17.2955809 12.6667615 18.782527 12.6667615 20.269473 12.8699982 21.3492543 13.2757803 22.0225623 13.682945 22.6965615 14.2926551 23.0332155 15.1056019 23.0332155 15.9413609 23.0332155 16.5607489 22.6993266 16.9610008 22.0308577 17.3619439 21.3637712 17.5624155 20.2805335 17.5624155 18.782527 17.5624155 17.2838292 17.3591788 16.2040478 16.9520141 15.5418003 16.546232 14.8795529 15.9303004 14.5484292 15.1056019 14.5484292 14.2809033 14.5484292 13.6684281 14.8830093 13.2681762 15.550787M19.1219461 14.112922C20.0793706 15.2168981 20.5591198 16.7729723 20.5591198 18.782527 20.5591198 20.0952701 20.3413662 21.2275888 19.905859 22.1794831 19.4703518 23.1320687 18.8433597 23.8606792 18.0241914 24.3660058 17.2050231 24.8713324 16.2316991 25.1236501 15.1056019 25.1236501 13.9795047 25.1236501 13.009637 24.8740975 12.195999 24.3743012 11.3830522 23.8751961 10.7588252 23.1521159 10.323318 22.2057518 9.88781082 21.2593878 9.67005721 20.1180824 9.67005721 18.782527 9.67005721 17.4815356 9.88781082 16.3547471 10.323318 15.4021615 10.7588252 14.4502672 11.3830522 13.7209655 12.195999 13.2163301 13.009637 12.7110035 13.9795047 12.4579946 15.1056019 12.4579946 16.8255097 12.4579946 18.1638302 13.0103283 19.1219461 14.112922M25.1235809 22.7542835L26.065106 22.7542835C27.0052486 22.7542835 27.7200334 22.4611802 28.2073867 21.8749737 28.6954313 21.2880759 28.9394536 20.2400935 28.9394536 18.7303352 28.9394536 17.6961784 28.8177881 16.8949834 28.5737658 16.326059 28.3304348 15.7564432 27.999311 15.3644867 27.5803946 15.1494982 27.1628607 14.935201 26.6457823 14.8273612 26.0298507 14.8273612L25.1235809 14.8273612 25.1235809 22.7542835zM30.1858337 14.0351528C31.3292129 14.8881939 31.9009025 16.453946 31.9009025 18.7303352 31.9009025 20.9714691 31.3437298 22.5482817 30.2286931 23.4600817 29.1136565 24.3718817 27.667496 24.827436 25.8902119 24.827436L22.2665154 24.827436 22.2665154 12.7542086 25.6295988 12.7542086C27.522327 12.7542086 29.0410719 13.1814204 30.1858337 14.0351528L30.1858337 14.0351528z"/>
      <polygon points="36.465 14.793 36.465 17.685 40.177 17.685 40.177 19.688 36.465 19.688 36.465 22.772 41.012 22.772 41.012 24.828 33.608 24.828 33.608 12.755 41.012 12.755 40.716 14.793"/>
    </g>
  </g>
</svg>
