<svg xmlns="http://www.w3.org/2000/svg" width="105" height="31" viewBox="0 0 105 31">
  <defs>
    <radialGradient id="python-logo-a" cx="100%" cy="100%" r="29.661%" fx="100%" fy="100%" gradientTransform="matrix(.19605 0 0 1 .804 0)">
      <stop offset="0%" stop-color="#B8B8B8" stop-opacity=".498"/>
      <stop offset="100%" stop-color="#7F7F7F" stop-opacity="0"/>
    </radialGradient>
  </defs>
  <g fill="none">
    <path fill="#FFF" d="M39.6206118 13.1425198C39.6206118 9.89484606 38.7046721 8.22753225 36.8727926 8.13623168 36.1439096 8.10145146 35.4322301 8.21883664 34.7398985 8.49056391 34.187325 8.69055405 33.8153603 8.88837196 33.6197007 9.08836211L33.6197007 16.840173C34.7915007 17.5836177 35.8321478 17.9292521 36.7394868 17.8749084 38.6595199 17.7466532 39.6206118 16.1706399 39.6206118 13.1425198zM41.8803596 13.2772962C41.8803596 14.9272188 41.4976434 16.2967207 40.7279096 17.3857998 39.8700221 18.6183509 38.6810206 19.2531038 37.1609051 19.2878862 36.0149051 19.3248409 34.8345044 18.961813 33.6197007 18.2009794L33.6197007 25.2463019 31.6545154 24.5376396 31.6545154 8.89923981C31.9770287 8.49925952 32.3919971 8.15579736 32.8951191 7.86450664 34.0647706 7.17540786 35.4859809 6.82107563 37.1587544 6.80368664L37.1867051 6.83194571C38.7154213 6.81238002 39.8936735 7.44713513 40.7214596 8.73402988 41.4933419 9.91440952 41.8803596 11.4273835 41.8803596 13.2772962zM53.8907801 17.900993C53.8907801 20.1139336 53.6714713 21.6464704 53.2328537 22.4986046 52.7920831 23.3507388 51.9535478 24.031142 50.7150926 24.5376396 49.7109993 24.9376199 48.6252022 25.1550013 47.4598522 25.191956L47.1351882 23.9398414C48.3198882 23.776806 49.1541265 23.6137683 49.6378963 23.4507328 50.5903875 23.1246619 51.2440169 22.6246854 51.6030816 21.9551501 51.8911941 21.409524 52.0331007 20.3682697 52.0331007 18.8270366L52.0331007 18.3096712C50.6892926 18.9270328 49.2809801 19.2335403 47.8081676 19.2335403 46.8406257 19.2335403 45.9870375 18.9270328 45.2517066 18.3096712 44.4260691 17.6379614 44.0132515 16.7858271 44.0132515 15.7532684L44.0132515 7.48408981 45.9784368 6.80368664 45.9784368 15.1272089C45.9784368 16.0162979 46.26225 16.7010499 46.8298743 17.181463 47.3974985 17.6618738 48.1328316 17.8922974 49.0337206 17.8749084 49.9346096 17.8553428 50.9000007 17.503185 51.9255949 16.8140884L51.9255949 7.10367297 53.8907801 7.10367297 53.8907801 17.900993zM61.562314 19.1791944C61.3279544 19.1987579 61.1129449 19.2074535 60.9151368 19.2074535 59.8035375 19.2074535 58.9370493 18.9400751 58.3178228 18.403144 57.7007449 17.8662128 57.3911338 17.1249426 57.3911338 16.1793356L57.3911338 8.35361304 56.045175 8.35361304 56.045175 7.10367297 57.3911338 7.10367297 57.3911338 3.78426211 59.3541684 3.07777211 59.3541684 7.10367297 61.562314 7.10367297 61.562314 8.35361304 59.3541684 8.35361304 59.3541684 16.1249897C59.3541684 16.8706066 59.5519765 17.3988421 59.9475949 17.7075241 60.2873096 17.9618601 60.8269831 18.1075066 61.562314 18.1444612L61.562314 19.1791944zM73.4609294 19.0161589L71.4957441 19.0161589 71.4957441 11.346953C71.4957441 10.5665536 71.3151353 9.89484606 70.9560728 9.33400254 70.5411044 8.69924966 69.9648772 8.38187211 69.2252471 8.38187211 68.3243559 8.38187211 67.1977059 8.86228513 65.8453015 9.82311117L65.8453015 19.0161589 63.880114 19.0161589 63.880114.68440705 65.8453015.0583497835 65.8453015 8.40795894C67.1009559 7.48408981 68.4727125 7.02106801 69.9627265 7.02106801 71.0033735 7.02106801 71.8462103 7.37539801 72.4912368 8.08188801 73.1384162 8.78837578 73.4609294 9.66876909 73.4609294 10.7208935L73.4609294 19.0161589 73.4609294 19.0161589zM83.9060824 12.8294912C83.9060824 11.5817233 83.671725 10.5513369 83.2051522 9.73615729 82.6504301 8.74272549 81.7882434 8.21883664 80.6228912 8.16449074 78.4684985 8.29057376 77.3934529 9.85137024 77.3934529 12.8425335 77.3934529 14.2142099 77.617061 15.3598071 78.0685787 16.2793295 78.6448059 17.4510135 79.5091434 18.0292483 80.6615934 18.0096848 82.8245868 17.9922936 83.9060824 16.2662872 83.9060824 12.8294912zM86.0583287 12.8425335C86.0583287 14.6185391 85.6089596 16.0967306 84.7123699 17.2771102 83.7254779 18.5987874 82.3623176 19.2617994 80.6228912 19.2617994 78.8985176 19.2617994 77.5547096 18.5987874 76.5850169 17.2771102 75.7056287 16.0967306 75.2670088 14.6185391 75.2670088 12.8425335 75.2670088 11.1730474 75.7421801 9.76876527 76.6925206 8.62534031 77.6966162 7.41235268 79.0167728 6.80368664 80.6486912 6.80368664 82.280614 6.80368664 83.6093691 7.41235268 84.6328169 8.62534031 85.5831551 9.76876527 86.0583287 11.1730474 86.0583287 12.8425335zM97.3248154 19.0161589L95.3596301 19.0161589 95.3596301 10.9121902C95.3596301 10.0231013 95.0951691 9.32965585 94.5662471 8.82967714 94.0373228 8.33187513 93.3320934 8.09058139 92.4527051 8.11014707 91.5195662 8.12753829 90.631575 8.43621801 89.7887404 9.03401621L89.7887404 19.0161589 87.8235551 19.0161589 87.8235551 8.78837578C88.9545044 7.95580722 89.9951493 7.41235268 90.9454875 7.15801664 91.8420794 6.92107182 92.633314 6.80368664 93.3148941 6.80368664 93.7814647 6.80368664 94.2200824 6.84933693 94.6329 6.94063527 95.4047846 7.12106196 96.0326096 7.45582851 96.5163816 7.9471116 97.0560529 8.49056391 97.3248154 9.14270801 97.3248154 9.90571391L97.3248154 19.0161589z"/>
    <path fill="#BBEBFF" d="M12.2448874,0.757821294 C11.2337874,0.762571275 10.2682096,0.849754738 9.41860059,1.00175115 C6.91575882,1.44879876 6.46133978,2.38450773 6.46133956,4.11011448 L6.46133956,6.38911628 L12.3758616,6.38911628 L12.3758616,7.14878355 L6.46133956,7.14878355 L4.24167044,7.14878355 C2.52274566,7.14878355 1.01760591,8.19335353 0.546817456,10.1804832 C0.00376892647,12.458195 -0.0203182279,13.8795243 0.546817456,16.2578213 C0.967242816,18.0281336 1.97127551,19.2895205 3.69019985,19.289521 L5.72374765,19.289521 L5.72374765,16.5575066 C5.72374765,14.5837874 7.41282353,12.8428038 9.41860059,12.8428033 L15.3262293,12.8428033 C16.9707037,12.8428033 18.283491,11.4738603 18.2834903,9.80413427 L18.2834903,4.11011448 C18.2834903,2.48956406 16.9312888,1.27221446 15.3262293,1.00175115 C14.3102027,0.83075486 13.2559873,0.753071314 12.2448874,0.757821294 Z M9.04635794,2.59077995 C9.65728743,2.59077995 10.1561925,3.10342762 10.1561925,3.73376556 C10.1561921,4.36186927 9.65728743,4.86978175 9.04635794,4.86978175 C8.43323824,4.86978153 7.93652338,4.36186905 7.93652338,3.73376556 C7.93652316,3.10342784 8.43323824,2.59077995 9.04635794,2.59077995 Z"/>
    <path fill="#FFF" d="M19.0210822 7.14878355L19.0210822 9.80413427C19.0210822 11.8627919 17.2947818 13.5955009 15.3262293 13.5955012L9.41860059 13.5955012C7.80040213 13.5955012 6.46133978 14.9957384 6.46133956 16.6341702L6.46133956 22.3281894C6.46133956 23.94874 7.85514574 24.9019298 9.41860059 25.3668584 11.290806 25.9234333 13.0861529 26.0240205 15.3262293 25.3668584 16.815234 24.9309873 18.283491 24.0537943 18.2834903 22.3281894L18.2834903 20.0491882 12.3758616 20.0491882 12.3758616 19.289521 18.2834903 19.289521 21.2407522 19.289521C22.9596772 19.289521 23.6002191 18.0773077 24.198011 16.2578213 24.8155103 14.3846885 24.789236 12.5833677 24.198011 10.1804832 23.7732066 8.45040642 22.9618632 7.14878355 21.2407522 7.14878355L19.0210822 7.14878355zM15.6984719 21.5685228C16.3115921 21.5685234 16.8083065 22.0764359 16.8083065 22.7045383 16.808306 23.3348753 16.3115914 23.8475239 15.6984719 23.8475239 15.0875418 23.8475239 14.5886374 23.3348753 14.5886374 22.7045383 14.5886378 22.0764359 15.0875411 21.5685228 15.6984719 21.5685228zM101.151706 5.33230844L101.496254 5.33230844 101.496254 3.14753549 102.312459 3.14753549 102.312459 2.88712211 100.335501 2.88712211 100.335501 3.14753549 101.151706 3.14753549 101.151706 5.33230844M102.61796 5.33230844L102.912329 5.33230844 102.912329 3.33692765 103.551243 5.33205776 103.878968 5.33205776 104.544739 3.34369189 104.544739 5.33230844 104.865869 5.33230844 104.865869 2.88712211 104.44104 2.88712211 103.713472 4.98193194 103.092964 2.88712211 102.61796 2.88712211 102.61796 5.33230844"/>
    <path fill="url(#python-logo-a)" d="M20.3689215,29.2376477 C20.3689215,29.7927887 18.8582438,30.3057602 16.405946,30.5833307 C13.9536481,30.8609012 10.9322926,30.8609012 8.47999477,30.5833307 C6.02769694,30.3057602 4.5170192,29.7927887 4.51701924,29.2376477 C4.51701918,28.6825066 6.02769692,28.1695351 8.47999476,27.8919646 C10.9322926,27.6143941 13.9536481,27.6143941 16.405946,27.8919646 C18.8582438,28.1695351 20.3689216,28.6825066 20.3689215,29.2376477 L20.3689215,29.2376477 Z" opacity=".444"/>
  </g>
</svg>
