<svg xmlns="http://www.w3.org/2000/svg" xmlns:xlink="http://www.w3.org/1999/xlink" width="59" height="67"><defs><rect id="a" width="2.22" height="59.29" x="6.67" y="1.85" rx="1.11"/><rect id="b" width="2.22" height="59.29" x="6.67" y="1.85" rx="1.11"/><rect id="c" width="2.22" height="59.29" x="6.67" y="1.85" rx="1.11"/><path id="d" d="M17.67 24.8L8.83 31l.95-10.76L0 15.68l9.78-4.56L8.84.37l8.83 6.2L26.5.36l-.94 10.75 9.78 4.56-9.78 4.56L26.5 31z"/></defs><g fill="none" fill-rule="evenodd"><g transform="translate(-2 2) matrix(1 0 0 -1 23.718 63)"><path stroke="#1C1C1C" stroke-linecap="round" stroke-width="3" d="M15.2 7.97l-7.6 7.6L0 7.97M15.2 55.08l-7.6-7.6-7.6 7.6"/><use fill="#FFF" xlink:href="#a"/><rect width="5.22" height="62.29" x="5.17" y=".35" stroke="#1A1A1A" stroke-width="3" rx="2.61"/><path fill="#CCF4FC" d="M7.78 1.85c.62 0 1.1.5 1.1 1.1v57.1c0 .6-.48 1.1-1.1 1.1V1.85z"/></g><g transform="translate(-2 2) scale(1 -1) rotate(60 74.2 20.54)"><path stroke="#1C1C1C" stroke-linecap="round" stroke-width="3" d="M15.2 7.97l-7.6 7.6L0 7.97M15.2 55.08l-7.6-7.6-7.6 7.6"/><use fill="#FFF" xlink:href="#b"/><rect width="5.22" height="62.29" x="5.17" y=".35" stroke="#1A1A1A" stroke-width="3" rx="2.61"/><path fill="#CCF4FC" d="M7.78 1.85c.62 0 1.1.5 1.1 1.1v57.1c0 .6-.48 1.1-1.1 1.1V1.85z"/></g><g transform="translate(-2 2) scale(1 -1) rotate(-60 -34.918 -20.54)"><path stroke="#1C1C1C" stroke-linecap="round" stroke-width="3" d="M15.2 7.97l-7.6 7.6L0 7.97M15.2 55.08l-7.6-7.6-7.6 7.6"/><use fill="#FFF" xlink:href="#c"/><rect width="5.22" height="62.29" x="5.17" y=".35" stroke="#1A1A1A" stroke-width="3" rx="2.61"/><path fill="#CCF4FC" d="M7.78 1.85c.62 0 1.1.5 1.1 1.1v57.1c0 .6-.48 1.1-1.1 1.1V1.85z"/></g><g stroke-linecap="round" stroke-linejoin="round" transform="translate(-2 2) translate(13.712 15.712)"><use fill="#FEFFFF" xlink:href="#d"/><path stroke="#1E1E1E" stroke-width="3" d="M17.67 26.63l-10.6 7.44 1.12-12.92-11.75-5.47L8.2 10.2 7.05-2.7l10.6 7.43L28.3-2.7l-1.13 12.9 11.74 5.48-11.75 5.47 1.13 12.92-10.6-7.44z"/></g><path fill="#C4F2FC" d="M29.38 24.27l8.84-6.2-.94 10.76 9.77 4.56-9.77 4.55.94 10.75-8.84-6.2"/></g></svg>