<svg xmlns="http://www.w3.org/2000/svg" xmlns:xlink="http://www.w3.org/1999/xlink" width="414" height="736">
  <defs>
    <path id="mobile-00-a" d="M230.92.84L.67 385.842 78.3 461.93l78.08-77.558 75.307 78.833 75.088-77.34 77.653 75.494 78.586-75.57z"/>
    <path id="mobile-00-b" d="M153.386.225L.11 256.82l51.68 50.71 51.976-51.69 50.13 52.54 49.986-51.545 51.692 50.315 52.313-50.36z"/>
    <ellipse id="mobile-00-c" cx="273.877" cy="49.833" rx="25.877" ry="25.833"/>
    <ellipse id="mobile-00-d" cx="46.5" cy="46.42" rx="46.5" ry="46.42"/>
    <path id="mobile-00-e" d="M27.126 48.174c-1.293 3.006-2.07 6.27-1.952 9.54.118 3.27 1.17 6.547 3.227 9.092 2.35 2.905 5.91 4.715 9.6 5.276 3.65.556 7.47-.065 10.76-1.747.97.665 2.02 1.212 3.12 1.623 2.07.773 4.31 1.066 6.51.848l11.04-.67c-.01-.357-.13-.712-.35-.998-.29-.39-.74-.642-1.21-.774s-.96-.154-1.45-.156c-.63-.002-1.25.028-1.88.09 1.65-.828 3.06-2.13 4.02-3.71.43-.71.77-1.483.94-2.298.16-.814.14-1.675-.13-2.46-.364-1.038-1.18-1.907-2.195-2.338-.35-.892-.85-1.727-1.47-2.456-.57-.675-1.25-1.26-2-1.73.45-.497.92-.974 1.41-1.43.34-.316.69-.622 1.05-.916.173.358.5.64.883.755.335.102.704.08 1.03-.047.33-.126.62-.35.83-.63.44-.554.58-1.293.53-1.995-.04-.654-.25-1.325-.712-1.787-.38-.377-.917-.59-1.45-.576.035-1.158-.187-2.323-.646-3.387-.44-1.018-1.097-1.94-1.915-2.692.445-.07.88-.17 1.3-.31.43-.14.84-.31 1.24-.52l1.575-.26c.41-.19.78-.46 1.083-.79.545-.6.873-1.4.906-2.21-.28-.35-.58-.68-.9-.99-.276-.26-.56-.51-.86-.74-.04-.72-.208-1.44-.49-2.11-.32-.74-.788-1.42-1.368-1.99.43-.36.76-.84.96-1.36.2-.52.26-1.09.3-1.65.03-.4.05-.8.056-1.21-.57.13-1.13.31-1.67.54-.517.23-1.016.5-1.44.87-.41.36-.744.8-.98 1.28l-.94-.34-.93-.15c-.11-.85-.32-1.69-.614-2.49-.226-.61-.503-1.21-.83-1.78-.65.51-1.225 1.12-1.69 1.81-.268.39-.498.8-.64 1.25-.18.54-.23 1.12-.14 1.68-.96.42-1.81 1.09-2.43 1.93-.77 1.05-1.187 2.35-1.16 3.64.02 1.3.49 2.58 1.3 3.6-.37 0-.74.026-1.1.08-1.23.19-2.39.71-3.38 1.466-.985.755-1.785 1.737-2.36 2.83-.468.88-.79 1.84-.957 2.82.98-5.462.14-11.24-2.36-16.2-1.3-2.583-3.06-4.97-5.327-6.78-2.26-1.81-5.04-3.02-7.93-3.19-2.55-.15-5.15.53-7.27 1.956-2.12 1.42-3.74 3.59-4.456 6.04-.734 2.534-.48 5.34.695 7.7.45-1.16 1.3-2.154 2.37-2.79 1.07-.63 2.35-.895 3.58-.736.795.1 1.57.38 2.23.83.66.46 1.2 1.09 1.51 1.83.26.62.36 1.29.326 1.96-.03.668-.19 1.325-.42 1.95-.46 1.25-1.21 2.37-1.907 3.51-.92 1.5-1.76 3.04-2.45 4.655z"/>
    <ellipse id="mobile-00-f" cx="25.877" cy="291.833" rx="25.877" ry="25.833"/>
    <path id="mobile-00-g" d="M192 383h25v10h-25z"/>
  </defs>
  <g fill="none" fill-rule="evenodd">
    <path fill="#7AD8BA" d="M0 0h414v736H0z"/>
    <g stroke-linecap="round" stroke-linejoin="round" transform="translate(-53 323) translate(26.877 77.5)">
      <use fill="#33CE86" xlink:href="#mobile-00-a"/>
      <path stroke="#2D2D2D" stroke-width="6" d="M306.837 390.11l-75.167 77.42-75.345-78.874-78.012 77.488-81.43-79.813L230.91-4.99 466.82 386.3l-82.403 79.232-77.58-75.423z"/>
    </g>
    <path fill="#1AC170" d="M204.73 401.34L-25.455 786.413l77.608 76.1 78.058-77.57 75.29 78.847 75.07-77.353"/>
    <path fill="#22AC6A" d="M204.73 401.34L-25.455 786.413l77.608 76.1 78.058-77.57"/>
    <g stroke-linejoin="round" transform="translate(-53 323) translate(104.51)">
      <use fill="#33CE86" xlink:href="#mobile-00-b"/>
      <path stroke="#2D2D2D" stroke-width="6" d="M203.943 261.08l-50.064 51.627-50.17-52.58-51.91 51.62-55.48-54.44L153.37-5.606l158.32 262.9-56.127 54.032-51.62-50.244z"/>
    </g>
    <path fill="#1AC170" d="M204.896 323.225L51.62 579.82l51.68 50.71 51.976-51.69 50.13 52.54 49.986-51.545"/>
    <path fill="#22AC6A" d="M204.896 323.225L51.62 579.82l51.68 50.71 51.976-51.69"/>
    <g transform="translate(-53 323) translate(70.228 70.75)">
      <use fill="#F8E71C" xlink:href="#mobile-00-c"/>
      <ellipse cx="273.877" cy="49.833" stroke="#282828" stroke-width="5" rx="28.377" ry="28.333"/>
      <g transform="translate(141)">
        <use fill="#08AAAE" xlink:href="#mobile-00-d"/>
        <ellipse cx="46.5" cy="46.42" stroke="#282828" stroke-width="5" rx="49" ry="48.92"/>
        <g fill-rule="nonzero">
          <use fill="#FEFEFE" fill-rule="evenodd" xlink:href="#mobile-00-e"/>
          <path stroke="#282828" stroke-width="3" d="M50.357 41.072c.183-.165.373-.322.568-.472.91-.698 1.942-1.22 3.025-1.53-.277-.764-.43-1.573-.446-2.387-.032-1.63.485-3.253 1.45-4.56.57-.774 1.29-1.432 2.108-1.933.03-.425.11-.846.243-1.25.184-.56.46-1.087.825-1.62.552-.815 1.233-1.54 2.01-2.148l1.37-1.067.857 1.508c.368.646.68 1.318.932 2.008.2.55.36 1.11.49 1.68.17-.2.37-.4.57-.58.52-.45 1.12-.81 1.83-1.12.63-.27 1.28-.48 1.94-.63l1.85-.41-.04 1.9c-.01.44-.03.87-.06 1.29-.06.87-.16 1.46-.39 2.08-.11.29-.25.57-.41.83.31.45.57.92.79 1.42.26.62.44 1.27.54 1.93.16.14.31.29.47.43.37.36.71.74 1.03 1.14l.35.44-.03.56c-.05 1.17-.52 2.3-1.3 3.17-.44.48-.97.87-1.55 1.14l-.19.09-1.56.27-.41.19c.263.417.495.854.69 1.307.38.88.625 1.82.723 2.78.39.17.745.41 1.05.71.72.714 1.085 1.69 1.154 2.754.07 1.108-.19 2.18-.84 3.01-.386.5-.896.89-1.48 1.114-.64.248-1.35.284-2.01.084-.16-.05-.317-.11-.465-.19l-.01.01-.18.17c.313.29.61.597.89.92.6.708 1.1 1.497 1.49 2.34 1.123.65 2.01 1.7 2.44 2.934.36 1.02.41 2.14.19 3.25-.19.95-.57 1.87-1.12 2.78-.36.59-.77 1.145-1.227 1.66.67.245 1.25.647 1.68 1.205.4.534.63 1.19.65 1.86l.05 1.455-1.46.09-10.973.67c-2.42.24-4.89-.088-7.17-.94-.94-.35-1.847-.79-2.7-1.31-3.38 1.534-7.208 2.07-10.88 1.512-4.19-.64-8.024-2.7-10.54-5.82-2.2-2.72-3.427-6.27-3.56-9.98-.12-3.34.614-6.8 2.07-10.19.68-1.58 1.53-3.17 2.55-4.84l.22-.36c.05-.08.05-.08.107-.16.83-1.34 1.17-1.96 1.45-2.72.194-.53.31-1.03.33-1.5.02-.48-.05-.93-.21-1.31-.19-.45-.534-.87-.98-1.17-.44-.31-.99-.51-1.57-.584-.9-.118-1.844.08-2.624.54-.788.463-1.41 1.2-1.74 2.044L22 40.7l-1.51-3.026c-1.348-2.7-1.63-5.89-.798-8.79.807-2.777 2.63-5.246 5.058-6.874 2.377-1.6 5.297-2.38 8.193-2.21 3.12.18 6.2 1.45 8.783 3.514 2.33 1.867 4.253 4.355 5.727 7.28 1.643 3.265 2.61 6.86 2.853 10.5z"/>
        </g>
      </g>
      <use fill="#E64C5F" xlink:href="#mobile-00-f"/>
      <ellipse cx="25.877" cy="291.833" stroke="#282828" stroke-width="5" rx="28.377" ry="28.333"/>
      <ellipse cx="421.444" cy="132.332" fill="#B2D6FF" rx="25.877" ry="25.833"/>
    </g>
    <ellipse cx="340.877" cy="348.833" fill="#FFB4BE" rx="25.877" ry="25.833"/>
    <ellipse cx="369.877" cy="452.833" fill="#B2D6FF" rx="25.877" ry="25.833"/>
    <ellipse cx="68.877" cy="400.833" fill="#FCF49C" rx="25.877" ry="25.833" style="mix-blend-mode:multiply"/>
    <use fill="#9B9B9B" xlink:href="#mobile-00-g"/>
    <path stroke="#282828" stroke-width="4" d="M194 385h21v6h-21z"/>
    <rect width="6" height="19" x="202" y="367" fill="#282828" rx="3"/>
    <circle cx="373" cy="119" r="6" fill="#FFF"/>
    <circle cx="49" cy="183" r="6" fill="#FFF"/>
    <circle cx="24.5" cy="85.5" r="3.5" fill="#FFF"/>
    <circle cx="356.5" cy="92.5" r="3.5" fill="#FFF"/>
    <circle cx="395.5" cy="180.5" r="3.5" fill="#FFF"/>
    <circle cx="369.5" cy="214.5" r="3.5" fill="#FFF"/>
    <circle cx="392.5" cy="35.5" r="3.5" fill="#FFF"/>
    <circle cx="392" cy="66" r="7" fill="#FFF"/>
    <circle cx="76" cy="26" r="7" fill="#FFF"/>
    <circle cx="18" cy="33" r="7" fill="#FFF"/>
    <circle cx="18" cy="330" r="7" fill="#FFF"/>
    <circle cx="120.5" cy="344.5" r="8.5" fill="#FFF"/>
    <circle cx="37.5" cy="478.5" r="8.5" fill="#FFF"/>
    <circle cx="271" cy="355" r="4" fill="#FFF"/>
  </g>
</svg>
