<svg xmlns="http://www.w3.org/2000/svg" xmlns:xlink="http://www.w3.org/1999/xlink" width="414" height="736" viewBox="0 0 414 736">
  <defs>
    <polygon id="tree-full-a" points="770.881 .422 .265 653.022 260.082 781.993 521.41 650.529 773.449 784.155 1024.758 653.06 1284.651 781.026 1547.665 652.946"/>
    <polygon id="tree-full-b" points="390.421 .422 .134 653.022 131.721 781.993 264.073 650.529 391.721 784.155 518.999 653.06 650.624 781.026 783.83 652.946"/>
    <polygon id="tree-full-c" points="259.997 .382 .189 435.322 87.784 521.278 175.889 433.661 260.862 522.719 345.589 435.348 433.21 520.633 521.883 435.271"/>
  </defs>
  <g fill="none" fill-rule="evenodd" transform="translate(-571 -346)">
    <g transform="translate(0 523)">
      <g stroke-linecap="round" stroke-linejoin="round">
        <use fill="#33CE86" xlink:href="#tree-full-a"/>
        <path stroke="#2D2D2D" stroke-width="7" d="M1024.80394,656.984053 L773.435723,788.10976 L521.367497,654.468098 L260.092646,785.905507 L-6.05840467,653.790737 L770.872351,-4.156698 L1554.04313,653.732729 L1284.64245,784.923176 L1024.80394,656.984053 Z"/>
      </g>
      <polyline fill="#1AC170" points="770.655 .422 .265 653.143 260.006 782.138 521.256 650.65 773.221 784.301 1024.457 653.182"/>
      <polyline fill="#22AC6A" points="770.655 .422 .265 653.143 260.006 782.138 521.256 650.65"/>
    </g>
    <g transform="translate(386 132)">
      <g stroke-linecap="round" stroke-linejoin="round">
        <use fill="#33CE86" xlink:href="#tree-full-b"/>
        <path stroke="#2D2D2D" stroke-width="7" d="M519.070479,658.011202 L391.700459,789.200859 L264.007516,655.527288 L131.737628,786.909708 L-4.28467412,653.591888 L390.408459,-6.37682546 L788.270521,653.531877 L650.610822,785.894463 L519.070479,658.011202 Z"/>
      </g>
      <polyline fill="#1AC170" points="390.306 .422 .134 653.143 131.682 782.138 263.995 650.65 391.606 784.301 518.846 653.182"/>
      <polyline fill="#22AC6A" points="390.306 .422 .134 653.143 131.682 782.138 263.995 650.65"/>
    </g>
    <g transform="translate(516)">
      <g stroke-linejoin="round">
        <use fill="#33CE86" xlink:href="#tree-full-c"/>
        <path stroke="#2D2D2D" stroke-width="7" d="M345.660689,440.301555 L260.841652,527.767647 L175.823315,438.661993 L87.800757,526.197502 L-4.22807286,435.89163 L259.984376,-6.42274798 L526.321552,435.857068 L433.196629,525.504604 L345.660689,440.301555 Z"/>
      </g>
      <polyline fill="#1AC170" points="259.997 .382 .189 435.322 87.784 521.278 175.889 433.661 260.862 522.719 345.589 435.348"/>
      <polyline fill="#22AC6A" points="259.997 .382 .189 435.322 87.784 521.278 175.889 433.661"/>
    </g>
  </g>
</svg>
