<svg xmlns="http://www.w3.org/2000/svg" xmlns:xlink="http://www.w3.org/1999/xlink" viewBox="0 2 414 220" ><defs><path id="b" d="M260 .4L.2 435.4l87.6 86 88-87.7 85 89 84.8-87.4 87.6 85.3 88.7-85.3z"/><filter id="a" width="118%" height="118%" x="-9%" y="-6.9%" filterUnits="objectBoundingBox"><feMorphology in="SourceAlpha" operator="dilate" radius="7" result="shadowSpreadOuter1"/><feOffset dy="11" in="shadowSpreadOuter1" result="shadowOffsetOuter1"/><feGaussianBlur in="shadowOffsetOuter1" result="shadowBlurOuter1" stdDeviation="11.5"/><feComposite in="shadowBlurOuter1" in2="SourceAlpha" operator="out" result="shadowBlurOuter1"/><feColorMatrix in="shadowBlurOuter1" values="0 0 0 0 0 0 0 0 0 0 0 0 0 0 0 0 0 0 0.5 0"/></filter></defs><g fill="none" fill-rule="evenodd"><g stroke-linejoin="round" transform="translate(-55 -345)"><use fill="#000" filter="url(#a)" xlink:href="#b"/><use fill="#33CE86" xlink:href="#b"/><path stroke="#2D2D2D" stroke-width="7" d="M345.7 440.3l-85 87.5-85-89-88 87.4-92-90.3L260-6.5 526.3 436l-93 89.5-87.6-85.2z"/></g><path fill="#1AC170" d="M205-344.6l-259.8 435 87.6 86 88-87.7 85 89 84.8-87.4"/><path fill="#22AC6A" d="M205-344.6l-259.8 435 87.6 86 88-87.7"/></g></svg>