<svg xmlns="http://www.w3.org/2000/svg" viewBox="0 0 81 96"  width="57" height="79" xmlns:xlink="http://www.w3.org/1999/xlink">
  <defs>
    <filter id="inactive-a" width="156.1%" height="132.9%" x="-28.1%" y="-10.1%" filterUnits="objectBoundingBox">
      <feOffset dy="2" in="SourceAlpha" result="shadowOffsetOuter1"/>
      <feGaussianBlur in="shadowOffsetOuter1" result="shadowBlurOuter1" stdDeviation="3"/>
      <feColorMatrix in="shadowBlurOuter1" result="shadowMatrixOuter1" values="0 0 0 0 0 0 0 0 0 0 0 0 0 0 0 0 0 0 0.491111866 0"/>
      <feMerge>
        <feMergeNode in="shadowMatrixOuter1"/>
        <feMergeNode in="SourceGraphic"/>
      </feMerge>
    </filter>
    <path id="inactive-b" d="M0 0h13.87v9.45H0z"/>
    <path id="inactive-c" d="M28.46 56.68c15.7 0 28.45-12.7 28.45-28.34S44.2 0 28.5 0C12.74 0 0 12.7 0 28.34 0 44 12.74 56.68 28.46 56.68z"/>
  </defs>
  <g fill="none" fill-rule="evenodd" filter="url(#inactive-a)" transform="translate(12 4)">
    <rect width="2.85" height="12.28" x="27.03" fill="#4A4A4A" rx="1.42"/>
    <g stroke-linejoin="round" transform="translate(21.342 11.809)">
      <use fill="#FFFBC3" xlink:href="#inactive-b"/>
      <path stroke="#1A1A1A" stroke-width="5" d="M-2.5-2.5h18.87v14.45H-2.5z"/>
    </g>
    <path fill="#E1DC9B" d="M28.47 11.8h7.13v9.46h-7.13z"/>
    <g transform="translate(0 21.256)">
      <use fill="#50CBE3" xlink:href="#inactive-c"/>
      <path stroke="#1C1C1C" stroke-width="6" d="M28.46 59.68C11.1 59.68-3 45.65-3 28.34-3 11.04 11.1-3 28.46-3 45.83-3 59.9 11.03 59.9 28.34c0 17.3-14.07 31.34-31.44 31.34z"/>
      <path fill="#FFF" fill-rule="nonzero" d="M43 21.53c-1.07.48-2.2.8-3.42.94 1.23-.74 2.17-1.9 2.62-3.3-1.17.7-2.45 1.2-3.78 1.45-1.08-1.15-2.63-1.88-4.34-1.88-3.3 0-5.95 2.67-5.95 5.95 0 .43.05.9.15 1.32-4.94-.25-9.33-2.62-12.26-6.22-.5.9-.8 1.9-.8 3 0 2.07 1.05 3.9 2.64 4.96-.94-.03-1.87-.3-2.7-.75v.1c0 2.9 2.06 5.3 4.78 5.84-.5.14-1.03.2-1.57.2-.38 0-.76-.03-1.12-.1.76 2.37 2.96 4.1 5.56 4.14-2 1.6-4.6 2.54-7.35 2.54-.48 0-.95-.02-1.42-.07 2.64 1.7 5.77 2.67 9.13 2.67 10.94 0 16.93-9.04 16.93-16.9 0-.26 0-.52-.03-.77 1.16-.85 2.17-1.9 2.97-3.1z"/>
    </g>
  </g>
</svg>
