<svg xmlns="http://www.w3.org/2000/svg" viewBox="0 0 81 96"  width="57" height="79" xmlns:xlink="http://www.w3.org/1999/xlink">
  <defs>
    <filter id="inactive-a" width="156.1%" height="132.9%" x="-28.1%" y="-10.1%" filterUnits="objectBoundingBox">
      <feOffset dy="2" in="SourceAlpha" result="shadowOffsetOuter1"/>
      <feGaussianBlur in="shadowOffsetOuter1" result="shadowBlurOuter1" stdDeviation="3"/>
      <feColorMatrix in="shadowBlurOuter1" result="shadowMatrixOuter1" values="0 0 0 0 0 0 0 0 0 0 0 0 0 0 0 0 0 0 0.491111866 0"/>
      <feMerge>
        <feMergeNode in="shadowMatrixOuter1"/>
        <feMergeNode in="SourceGraphic"/>
      </feMerge>
    </filter>
    <path id="inactive-b" d="M0 0h13.87v9.45H0z"/>
    <path id="inactive-c" d="M28.46 56.68c15.7 0 28.45-12.7 28.45-28.34S44.2 0 28.5 0C12.74 0 0 12.7 0 28.34 0 44 12.74 56.68 28.46 56.68z"/>
  </defs>
  <g fill="none" fill-rule="evenodd" filter="url(#inactive-a)" transform="translate(12 4)">
    <rect width="2.85" height="12.28" x="27.03" fill="#4A4A4A" rx="1.42"/>
    <g stroke-linejoin="round" transform="translate(21.342 11.809)">
      <use fill="#FFFBC3" xlink:href="#inactive-b"/>
      <path stroke="#1A1A1A" stroke-width="5" d="M-2.5-2.5h18.87v14.45H-2.5z"/>
    </g>
    <path fill="#E1DC9B" d="M28.47 11.8h7.13v9.46h-7.13z"/>
    <g transform="translate(0 21.256)">
      <use fill="#4A90E2" xlink:href="#inactive-c"/>
      <path stroke="#1C1C1C" stroke-width="6" d="M28.46 59.68C11.1 59.68-3 45.65-3 28.34-3 11.04 11.1-3 28.46-3 45.83-3 59.9 11.03 59.9 28.34c0 17.3-14.07 31.34-31.44 31.34z"/>
      <path fill="#FFF" fill-rule="nonzero" d="M31.62 46.4V29.94h5.52l.83-6.43h-6.35v-4.1c0-1.83.52-3.1 3.18-3.1h3.4v-5.74c-.6-.08-2.6-.26-4.95-.26-4.9 0-8.25 3-8.25 8.5v4.72h-5.53v6.44H25V46.4h6.62z"/>
    </g>
  </g>
</svg>
